HIERARCHY
ROOT pelvis
{
	OFFSET 0.000000 0.000000 0.000000
	CHANNELS 6 Xposition Yposition Zposition Xrotation Yrotation Zrotation
	JOINT l_hip
	{
		OFFSET 0.195211 -0.245059 -0.022011
		CHANNELS 3 Xrotation Yrotation Zrotation
		JOINT l_knee
		{
			OFFSET 0.083896 -0.996307 -0.018298
			CHANNELS 3 Xrotation Yrotation Zrotation
			JOINT l_ankle
			{
				OFFSET -0.031606 -1.048662 -0.119000
				CHANNELS 3 Xrotation Yrotation Zrotation
				JOINT l_foot
				{
					OFFSET 0.063841 -0.149483 0.312863
					CHANNELS 3 Xrotation Yrotation Zrotation
					End Site
					{
						OFFSET 0.000000 0.000000 0.000000
					}
				}
			}
		}
	}
	JOINT r_hip
	{
		OFFSET -0.188785 -0.243354 -0.013119
		CHANNELS 3 Xrotation Yrotation Zrotation
		JOINT r_knee
		{
			OFFSET -0.098896 -1.013926 -0.025127
			CHANNELS 3 Xrotation Yrotation Zrotation
			JOINT r_ankle
			{
				OFFSET 0.038376 -1.049454 -0.114596
				CHANNELS 3 Xrotation Yrotation Zrotation
				JOINT r_foot
				{
					OFFSET -0.060300 -0.126955 0.322518
					CHANNELS 3 Xrotation Yrotation Zrotation
					End Site
					{
						OFFSET 0.000000 0.000000 0.000000
					}
				}
			}
		}
	}
	JOINT spine1
	{
		OFFSET -0.006861 0.282462 -0.060688
		CHANNELS 3 Xrotation Yrotation Zrotation
		JOINT spine2
		{
			OFFSET 0.009796 0.349212 -0.004686
			CHANNELS 3 Xrotation Yrotation Zrotation
			JOINT spine3
			{
				OFFSET 0.005545 0.134239 0.076232
				CHANNELS 3 Xrotation Yrotation Zrotation
				JOINT neck
				{
					OFFSET -0.005369 0.569656 -0.136135
					CHANNELS 3 Xrotation Yrotation Zrotation
					JOINT head
					{
						OFFSET 0.009621 0.170484 0.137338
						CHANNELS 3 Xrotation Yrotation Zrotation
						End Site
						{
							OFFSET 0.000000 0.000000 0.000000
						}
					}
				}
				JOINT l_collar
				{
					OFFSET 0.205981 0.322192 -0.100872
					CHANNELS 3 Xrotation Yrotation Zrotation
					JOINT l_shoulder
					{
						OFFSET 0.233388 0.086823 -0.019950
						CHANNELS 3 Xrotation Yrotation Zrotation
						JOINT l_elbow
						{
							OFFSET 0.687295 -0.032736 -0.075278
							CHANNELS 3 Xrotation Yrotation Zrotation
							JOINT l_wrist
							{
								OFFSET 0.651109 0.024639 0.000120
								CHANNELS 3 Xrotation Yrotation Zrotation
								JOINT l_hand
								{
									OFFSET 0.217934 -0.026487 -0.036124
									CHANNELS 3 Xrotation Yrotation Zrotation
									End Site
									{
										OFFSET 0.000000 0.000000 0.000000
									}
								}
							}
						}
					}
				}
				JOINT r_collar
				{
					OFFSET -0.210726 0.316244 -0.114374
					CHANNELS 3 Xrotation Yrotation Zrotation
					JOINT r_shoulder
					{
						OFFSET -0.244017 0.089684 -0.026814
						CHANNELS 3 Xrotation Yrotation Zrotation
						JOINT r_elbow
						{
							OFFSET -0.672913 -0.035979 -0.055153
							CHANNELS 3 Xrotation Yrotation Zrotation
							JOINT r_wrist
							{
								OFFSET -0.670689 0.023586 -0.009661
								CHANNELS 3 Xrotation Yrotation Zrotation
								JOINT r_hand
								{
									OFFSET -0.219937 -0.019827 -0.028502
									CHANNELS 3 Xrotation Yrotation Zrotation
									End Site
									{
										OFFSET 0.000000 0.000000 0.000000
									}
								}
							}
						}
					}
				}
			}
		}
	}
}
MOTION
Frames: 15
Frame Time: 0.016667
0.000000 0.000000 0.000000 0.000000 0.000000 0.000000 3.406946 3.307920 5.537195 1.204151 -11.703546 -1.761147 0.000000 0.000000 0.000000 0.000000 0.000000 0.000000 -1.912953 -4.420872 -3.303745 16.807622 -2.367876 3.066718 0.000000 0.000000 0.000000 0.000000 0.000000 0.000000 11.730627 -2.423455 1.320920 0.923268 -3.094469 1.189898 2.803087 -4.591389 -0.242474 -0.265045 2.066536 0.954999 10.192023 -5.469826 -3.864433 4.770289 2.214642 -30.308674 -0.737594 -15.564982 -47.755876 21.338455 -33.364885 12.443336 0.000000 0.000000 0.000000 0.000000 0.000000 0.000000 2.200687 -2.059572 33.687003 7.366083 6.697237 44.761296 -8.230067 8.981389 -6.379977 0.000000 0.000000 0.000000 0.000000 0.000000 0.000000 
0.000000 0.000000 0.000000 0.000000 0.000000 0.000000 3.314227 3.293409 5.519995 1.212935 -11.607729 -1.747916 0.000000 0.000000 0.000000 0.000000 0.000000 0.000000 -1.920696 -4.437767 -3.325627 16.793532 -2.466987 3.126325 0.000000 0.000000 0.000000 0.000000 0.000000 0.000000 11.762926 -2.341891 1.387209 0.778011 -3.007824 1.189661 2.630850 -4.480070 -0.221217 -0.422699 1.908749 1.070470 10.142775 -5.651483 -3.848921 4.702823 2.220795 -30.281154 -0.569385 -15.543112 -47.818313 21.469686 -33.282457 12.353791 0.000000 0.000000 0.000000 0.000000 0.000000 0.000000 2.000418 -1.818156 33.616368 6.999079 6.955257 44.586906 -8.376183 8.978183 -6.353430 0.000000 0.000000 0.000000 0.000000 0.000000 0.000000 
0.000000 0.000000 0.000000 0.000000 0.000000 0.000000 3.299396 3.260497 5.418024 1.124225 -11.632576 -1.725862 0.000000 0.000000 0.000000 0.000000 0.000000 0.000000 -2.105396 -4.377532 -3.366220 17.007098 -2.504665 3.078732 0.000000 0.000000 0.000000 0.000000 0.000000 0.000000 11.792668 -2.281277 1.446748 0.611857 -2.878496 1.157235 2.456824 -4.362592 -0.226336 -0.638268 1.761263 1.137733 10.029685 -5.792798 -3.865084 4.685260 2.239918 -30.254962 -0.400982 -15.460016 -47.935468 21.505485 -33.154597 12.307011 0.000000 0.000000 0.000000 0.000000 0.000000 0.000000 1.775118 -1.557945 33.488610 6.676180 7.253250 44.441897 -8.444178 9.073712 -6.364396 0.000000 0.000000 0.000000 0.000000 0.000000 0.000000 
0.000000 0.000000 0.000000 0.000000 0.000000 0.000000 3.221824 3.203832 5.321305 1.257987 -11.576571 -1.647566 0.000000 0.000000 0.000000 0.000000 0.000000 0.000000 -2.292554 -4.315582 -3.400669 17.314067 -2.604205 3.103788 0.000000 0.000000 0.000000 0.000000 0.000000 0.000000 11.841704 -2.203834 1.525346 0.533410 -2.756985 1.150042 2.337535 -4.227174 -0.222679 -0.785959 1.600063 1.198525 9.923054 -5.945921 -3.874698 4.637705 2.144264 -30.248109 -0.264385 -15.412304 -48.002897 21.494883 -33.062727 12.267760 0.000000 0.000000 0.000000 0.000000 0.000000 0.000000 1.563330 -1.204731 33.387812 6.264075 7.536087 44.281150 -8.654205 9.239446 -6.433668 0.000000 0.000000 0.000000 0.000000 0.000000 0.000000 
0.000000 0.000000 0.000000 0.000000 0.000000 0.000000 3.143460 3.075369 5.198560 1.361565 -11.571137 -1.493820 0.000000 0.000000 0.000000 0.000000 0.000000 0.000000 -2.504267 -4.182566 -3.380167 17.609752 -2.609071 3.079058 0.000000 0.000000 0.000000 0.000000 0.000000 0.000000 11.844036 -2.125220 1.566250 0.547156 -2.633833 1.157445 2.258059 -4.087952 -0.215725 -0.998850 1.440563 1.307373 9.800191 -6.132109 -3.859396 4.585862 1.996858 -30.308712 -0.170835 -15.395663 -47.988405 21.287778 -32.989329 12.226127 0.000000 0.000000 0.000000 0.000000 0.000000 0.000000 1.320681 -0.800581 33.387258 5.789628 7.832300 44.064161 -9.074256 9.367432 -6.566003 0.000000 0.000000 0.000000 0.000000 0.000000 0.000000 
0.000000 0.000000 0.000000 0.000000 0.000000 0.000000 3.132281 3.081172 5.090906 1.588467 -11.409930 -1.394360 0.000000 0.000000 0.000000 0.000000 0.000000 0.000000 -2.634078 -4.121628 -3.407003 18.020495 -2.599349 3.090196 0.000000 0.000000 0.000000 0.000000 0.000000 0.000000 11.869885 -2.033769 1.601979 0.611921 -2.521585 1.147478 2.173454 -3.960474 -0.220370 -1.151952 1.328386 1.354371 9.599054 -6.213149 -3.890335 4.503692 1.833830 -30.314837 -0.071301 -15.300099 -47.983201 21.079947 -32.739696 12.059557 0.000000 0.000000 0.000000 0.000000 0.000000 0.000000 1.079660 -0.450380 33.298311 5.289022 8.118885 43.887051 -9.417773 9.708926 -6.737710 0.000000 0.000000 0.000000 0.000000 0.000000 0.000000 
0.000000 0.000000 0.000000 0.000000 0.000000 0.000000 3.068423 3.058992 4.980153 1.720912 -11.365518 -1.346427 0.000000 0.000000 0.000000 0.000000 0.000000 0.000000 -2.864479 -4.000871 -3.408351 18.359361 -2.619593 3.071825 0.000000 0.000000 0.000000 0.000000 0.000000 0.000000 11.902240 -2.006045 1.614654 0.504132 -2.436467 1.134697 2.047014 -3.865735 -0.228612 -1.322564 1.318091 1.438062 9.518936 -6.294205 -3.985620 4.536312 1.760450 -30.334081 0.073010 -15.139614 -48.050889 20.843317 -32.427966 11.971890 0.000000 0.000000 0.000000 0.000000 0.000000 0.000000 0.797765 -0.152091 33.232646 4.692712 8.453843 43.674852 -9.927766 9.810551 -6.897525 0.000000 0.000000 0.000000 0.000000 0.000000 0.000000 
0.000000 0.000000 0.000000 0.000000 0.000000 0.000000 2.958910 3.098156 4.911959 1.923908 -11.281518 -1.244105 0.000000 0.000000 0.000000 0.000000 0.000000 0.000000 -3.247607 -3.941112 -3.430981 18.891327 -2.656576 3.063217 0.000000 0.000000 0.000000 0.000000 0.000000 0.000000 11.949062 -2.001627 1.618524 0.342887 -2.343415 1.125005 1.954863 -3.803579 -0.223374 -1.660821 1.355032 1.510465 9.426405 -6.341680 -4.105462 4.506321 1.891819 -30.351881 0.290306 -14.968414 -48.044857 20.802829 -32.228960 11.849453 0.000000 0.000000 0.000000 0.000000 0.000000 0.000000 0.531089 -0.109500 33.206109 4.239253 8.724278 43.419234 -10.320241 10.216996 -7.068040 0.000000 0.000000 0.000000 0.000000 0.000000 0.000000 
0.000000 0.000000 0.000000 0.000000 0.000000 0.000000 2.692643 3.063452 4.853739 2.213437 -11.074141 -1.145320 0.000000 0.000000 0.000000 0.000000 0.000000 0.000000 -3.484025 -3.813163 -3.381590 19.003894 -2.634200 3.048806 0.000000 0.000000 0.000000 0.000000 0.000000 0.000000 12.021976 -1.981479 1.651558 0.116218 -2.278270 1.096471 1.833846 -3.732093 -0.230686 -1.841764 1.368140 1.585980 9.443650 -6.351771 -4.206402 4.467033 1.935019 -30.326980 0.462753 -14.829580 -48.057155 20.660101 -31.818983 11.609784 0.000000 0.000000 0.000000 0.000000 0.000000 0.000000 0.222074 0.086443 33.112312 3.758287 9.142559 43.120615 -10.581473 10.318292 -7.107847 0.000000 0.000000 0.000000 0.000000 0.000000 0.000000 
0.000000 0.000000 0.000000 0.000000 0.000000 0.000000 2.627495 3.054521 4.846268 2.446902 -11.175687 -1.043031 0.000000 0.000000 0.000000 0.000000 0.000000 0.000000 -3.512036 -3.824109 -3.370010 19.103854 -2.594760 3.125301 0.000000 0.000000 0.000000 0.000000 0.000000 0.000000 11.985414 -1.976628 1.679943 -0.049509 -2.263628 1.085277 1.705333 -3.700641 -0.235956 -1.708634 1.414600 1.642603 9.543783 -6.382683 -4.357265 4.498157 2.032548 -30.380880 0.728734 -14.605181 -48.032149 20.621978 -31.387668 11.402311 0.000000 0.000000 0.000000 0.000000 0.000000 0.000000 0.018977 0.163730 33.099534 3.364325 9.418312 42.764501 -10.747011 10.656966 -7.242116 0.000000 0.000000 0.000000 0.000000 0.000000 0.000000 
0.000000 0.000000 0.000000 0.000000 0.000000 0.000000 2.427722 3.082886 4.880951 2.642446 -11.026709 -0.904365 0.000000 0.000000 0.000000 0.000000 0.000000 0.000000 -3.786688 -3.725039 -3.304514 19.273063 -2.530193 3.124584 0.000000 0.000000 0.000000 0.000000 0.000000 0.000000 12.072645 -1.939132 1.710462 -0.235896 -2.145521 1.034717 1.578888 -3.601090 -0.243076 -2.070721 1.512092 1.713067 9.528652 -6.392199 -4.452928 4.404057 2.170256 -30.400832 0.986890 -14.438437 -47.996646 20.486607 -31.041297 11.171388 0.000000 0.000000 0.000000 0.000000 0.000000 0.000000 -0.276088 0.282822 33.050382 2.972035 9.794949 42.408374 -10.925072 10.951931 -7.272700 0.000000 0.000000 0.000000 0.000000 0.000000 0.000000 
0.000000 0.000000 0.000000 0.000000 0.000000 0.000000 2.424510 3.127473 4.927911 2.767648 -10.969616 -0.859697 0.000000 0.000000 0.000000 0.000000 0.000000 0.000000 -3.817346 -3.712540 -3.275317 19.335995 -2.529445 3.172076 0.000000 0.000000 0.000000 0.000000 0.000000 0.000000 12.017322 -1.873455 1.734136 -0.336482 -2.122670 1.006750 1.370540 -3.511934 -0.204019 -2.322078 1.541526 1.700247 9.026051 -6.213579 -4.438587 4.388647 1.951521 -30.294999 1.229219 -14.172340 -48.061123 20.421602 -30.386978 10.810227 0.000000 0.000000 0.000000 0.000000 0.000000 0.000000 -0.382546 0.646285 32.808379 2.544448 9.973352 42.290225 -10.910212 11.202027 -7.417729 0.000000 0.000000 0.000000 0.000000 0.000000 0.000000 
0.000000 0.000000 0.000000 0.000000 0.000000 0.000000 2.468858 3.167161 4.955577 2.804966 -10.866127 -0.738581 0.000000 0.000000 0.000000 0.000000 0.000000 0.000000 -3.776764 -3.651460 -3.189413 19.267188 -2.468293 3.195802 0.000000 0.000000 0.000000 0.000000 0.000000 0.000000 11.982623 -1.848157 1.750794 -0.316449 -2.143914 0.999585 1.245677 -3.468183 -0.180475 -2.240715 1.609478 1.601847 8.828752 -6.111000 -4.520778 4.316120 1.709280 -30.214796 1.382714 -14.062740 -48.062874 20.295093 -29.824793 10.474955 0.000000 0.000000 0.000000 0.000000 0.000000 0.000000 -0.587390 0.954645 32.688835 2.076891 10.275822 42.066681 -11.019053 11.433612 -7.484205 0.000000 0.000000 0.000000 0.000000 0.000000 0.000000 
0.000000 0.000000 0.000000 0.000000 0.000000 0.000000 2.276167 3.087068 4.932639 2.951165 -10.787914 -0.624663 0.000000 0.000000 0.000000 0.000000 0.000000 0.000000 -3.962166 -3.559625 -3.134338 19.323436 -2.444495 3.214795 0.000000 0.000000 0.000000 0.000000 0.000000 0.000000 11.945381 -1.846542 1.775520 -0.377111 -2.137257 0.958346 1.179711 -3.439490 -0.195166 -2.535031 1.691814 1.640488 8.801206 -6.109711 -4.570458 4.199921 1.550976 -30.220314 1.529707 -13.976407 -47.964202 20.047712 -29.195892 10.079301 0.000000 0.000000 0.000000 0.000000 0.000000 0.000000 -0.864904 1.175927 32.622256 1.771663 10.625779 41.811233 -11.082113 11.726866 -7.516488 0.000000 0.000000 0.000000 0.000000 0.000000 0.000000 
0.000000 0.000000 0.000000 0.000000 0.000000 0.000000 2.368065 3.158072 4.925986 2.949186 -10.672058 -0.476823 0.000000 0.000000 0.000000 0.000000 0.000000 0.000000 -3.874015 -3.522630 -3.047196 19.232063 -2.385107 3.204116 0.000000 0.000000 0.000000 0.000000 0.000000 0.000000 11.746707 -1.812933 1.788538 -0.392822 -2.110772 0.937527 1.108703 -3.388325 -0.195438 -2.565929 1.747350 1.761304 8.773074 -6.034463 -4.579556 4.133905 1.542114 -30.237156 1.716714 -13.834624 -47.927279 19.942231 -28.682491 9.746405 0.000000 0.000000 0.000000 0.000000 0.000000 0.000000 -1.021615 1.258508 32.515327 1.511403 10.868850 41.713193 -11.097561 12.211559 -7.657691 0.000000 0.000000 0.000000 0.000000 0.000000 0.000000 
